<svg width="64" height="64" viewBox="0 0 64 64" xmlns="http://www.w3.org/2000/svg">
  <circle cx="32" cy="32" r="32" fill="#25d366"/>
  <path d="M32 12c-11.046 0-20 8.954-20 20 0 3.567 0.953 6.911 2.586 9.804L12 52l10.418-2.574C25.301 51.037 28.568 52 32 52c11.046 0 20-8.954 20-20S43.046 12 32 12zm10.086 28.328c-0.418 1.176-2.074 2.158-3.398 2.439-0.885 0.188-2.046 0.339-5.936-1.258-5.269-2.164-8.703-7.44-8.968-7.785-0.264-0.344-2.164-2.876-2.164-5.485 0-2.609 1.369-3.891 1.855-4.424 0.486-0.533 1.061-0.666 1.415-0.666 0.354 0 0.708 0.002 1.016 0.018 0.325 0.017 0.762-0.124 1.191 0.908 0.439 1.057 1.497 3.648 1.629 3.914 0.132 0.265 0.221 0.574 0.044 0.918-0.177 0.344-0.265 0.558-0.531 0.863-0.265 0.305-0.558 0.681-0.797 0.914-0.265 0.258-0.541 0.536-0.233 1.052 0.308 0.516 1.368 2.257 2.936 3.656 2.017 1.799 3.719 2.355 4.246 2.621 0.527 0.265 0.834 0.221 1.141-0.133 0.308-0.354 1.322-1.545 1.675-2.076 0.354-0.531 0.708-0.442 1.191-0.265 0.486 0.177 3.074 1.45 3.603 1.716 0.527 0.265 0.884 0.398 1.016 0.619 0.133 0.221 0.133 1.281-0.285 2.516z" fill="white"/>
</svg>
